<?xml version="1.0" standalone="no"?>
<!DOCTYPE svg PUBLIC "-//W3C//DTD SVG 20010904//EN"
 "http://www.w3.org/TR/2001/REC-SVG-20010904/DTD/svg10.dtd">
<svg version="1.0" xmlns="http://www.w3.org/2000/svg"
 width="963.000000pt" height="1280.000000pt" viewBox="0 0 963.000000 1280.000000"
 preserveAspectRatio="xMidYMid meet">
<metadata>
Created by potrace 1.15, written by Peter Selinger 2001-2017
</metadata>
<g transform="translate(0.000000,1280.000000) scale(0.100000,-0.100000)"
fill="#9c27b0" stroke="none">
<path d="M4391 12744 c-12 -27 -45 -101 -73 -165 -44 -101 -54 -118 -77 -122
-247 -46 -321 -61 -321 -68 0 -4 51 -52 113 -107 167 -148 151 -111 127 -306
-12 -91 -20 -171 -18 -176 2 -5 72 31 157 81 l155 91 159 -76 c88 -42 162 -74
164 -72 3 3 -12 82 -32 176 -36 167 -37 172 -18 193 10 11 64 70 121 131 69
74 98 112 90 117 -7 3 -74 12 -148 18 -218 19 -189 3 -276 161 -105 191 -97
184 -123 124z"/>
<path d="M6001 12474 l-105 -145 -178 7 c-98 4 -178 4 -178 -1 0 -4 47 -71
105 -149 l104 -142 -59 -169 c-33 -93 -58 -170 -56 -172 1 -2 79 22 173 53
l170 56 147 -112 146 -111 0 185 0 185 140 97 c78 53 143 101 146 105 2 5 -69
31 -158 60 -90 29 -168 57 -174 63 -6 6 -32 84 -59 174 -26 89 -51 162 -54
162 -3 0 -53 -66 -110 -146z"/>
<path d="M2691 12316 l-43 -174 -170 -62 c-135 -50 -167 -65 -156 -75 7 -6 73
-49 146 -95 75 -47 137 -93 142 -104 4 -12 10 -92 13 -179 3 -87 8 -161 10
-164 3 -3 67 47 142 109 l136 115 171 -49 c95 -26 173 -46 175 -44 2 2 -26 78
-62 169 l-66 165 102 153 101 152 -123 -7 c-68 -3 -151 -9 -184 -12 l-60 -6
-110 141 c-60 78 -112 141 -115 141 -3 0 -25 -78 -49 -174z"/>
<path d="M4278 11621 c-53 -3 -99 -8 -101 -11 -3 -3 19 -340 49 -749 31 -409
54 -744 52 -746 -2 -1 -100 -12 -219 -24 -119 -12 -288 -33 -375 -47 -88 -13
-177 -27 -199 -30 l-40 -6 -84 713 c-46 393 -86 717 -90 721 -9 11 -534 -72
-549 -86 -1 -2 61 -297 138 -657 78 -360 147 -682 154 -717 8 -34 11 -64 7
-66 -3 -2 -60 -18 -126 -36 -175 -46 -315 -90 -357 -111 -159 -81 -298 -299
-298 -468 0 -38 23 -151 64 -322 36 -145 78 -320 95 -389 30 -128 53 -190 91
-247 17 -25 19 -34 8 -38 -7 -2 -83 -23 -168 -46 -249 -67 -498 -146 -543
-172 -53 -31 -148 -131 -175 -182 -30 -59 -52 -143 -52 -196 0 -29 28 -140 74
-295 41 -137 100 -337 131 -444 31 -107 65 -225 76 -262 11 -39 39 -96 64
-133 l44 -64 -42 -11 c-106 -28 -335 -95 -462 -136 -151 -48 -205 -79 -268
-156 -63 -77 -90 -143 -95 -233 -4 -80 -4 -81 66 -255 162 -404 418 -1088 411
-1094 -2 -1 -67 -19 -144 -40 -403 -106 -474 -145 -587 -320 -48 -74 -78 -170
-78 -248 0 -32 11 -127 24 -211 69 -425 186 -1190 184 -1193 -2 -1 -60 -12
-128 -24 -431 -72 -701 -153 -786 -234 -52 -50 -55 -73 -13 -120 206 -235
1743 -420 3917 -472 l272 -7 0 -221 0 -221 -63 -34 c-257 -140 -407 -343 -407
-552 l0 -68 -32 -5 c-18 -3 -98 -12 -178 -21 -543 -61 -893 -172 -893 -283 0
-41 20 -63 102 -106 198 -104 644 -178 1361 -228 246 -17 1164 -17 1410 0 569
39 930 89 1190 163 181 52 291 125 274 184 -30 107 -378 212 -894 270 -80 9
-160 18 -177 21 l-33 5 0 68 c0 209 -150 412 -407 552 l-63 34 0 221 0 221
273 7 c1973 47 3381 198 3829 410 63 30 118 85 118 118 0 40 -80 103 -181 142
-136 52 -429 124 -622 152 -48 6 -49 7 -43 38 3 17 37 279 76 581 80 613 83
682 40 785 -55 130 -151 245 -253 305 -59 34 -513 174 -824 255 -41 10 -42 12
-32 38 6 15 37 99 69 187 95 264 226 606 324 850 51 127 96 251 100 276 14 96
-31 216 -117 307 -86 90 -97 95 -487 211 -107 33 -280 80 -385 107 -104 26
-192 49 -194 50 -5 5 127 469 247 864 52 173 99 336 104 363 26 137 -76 330
-220 414 -47 28 -275 93 -530 153 -90 21 -165 40 -167 42 -4 4 14 80 137 583
102 415 107 460 68 575 -28 82 -97 188 -158 240 -91 77 -156 102 -435 164 -60
14 -111 27 -114 29 -2 3 40 335 95 739 54 403 96 736 93 739 -7 8 -283 37
-438 46 l-112 6 -5 -24 c-2 -13 -17 -341 -31 -729 -15 -388 -28 -706 -30 -708
-1 -1 -58 4 -126 12 -145 17 -377 33 -609 42 l-165 6 3 176 c2 98 9 433 15
745 7 313 10 571 8 573 -6 6 -335 2 -453 -5z"/>
</g>
</svg>
